<svg xmlns="http://www.w3.org/2000/svg" width="51" height="51" viewBox="0 0 51 51" fill="none">
  <g clip-path="url(#clip0_565_1729)">
    <path fill-rule="evenodd" clip-rule="evenodd" d="M18.6448 18.5165C18.2097 18.5165 17.8558 18.162 17.8558 17.7269C17.8558 17.2918 18.2097 16.9379 18.6448 16.9379C19.0799 16.9379 19.4344 17.2918 19.4344 17.7269C19.4344 18.162 19.0799 18.5165 18.6448 18.5165ZM18.6448 15.4214C17.3735 15.4214 16.3392 16.4556 16.3392 17.727C16.3392 18.9989 17.3735 20.0326 18.6448 20.0326C19.9167 20.0326 20.9503 18.9989 20.9503 17.727C20.9503 16.4556 19.9167 15.4214 18.6448 15.4214ZM17.8565 7.07513C18.1195 6.81673 18.3793 6.80742 18.7272 6.80742C19.2268 6.80742 19.6777 7.13553 19.6184 7.56254L18.8058 13.3842C18.7782 13.4482 18.5125 13.4472 18.4845 13.3842L17.6719 7.56254C17.6547 7.43799 17.6598 7.26928 17.8565 7.07513ZM16.9832 13.6026C17.0916 14.3787 17.7999 14.9505 18.6563 14.9505C19.4899 14.9505 20.1997 14.3705 20.3069 13.6026L21.1202 7.77144C21.3108 6.40459 20.1379 5.29093 18.7271 5.29093H18.5623C17.1513 5.29093 15.9793 6.40539 16.1698 7.77144L16.9832 13.6026ZM8.03708 19.5022C7.65924 20.1569 8.12644 20.9678 8.88349 20.9678H28.4067C29.1637 20.9678 29.6308 20.1563 29.2525 19.5022L19.4912 2.59765C19.1126 1.93778 18.1766 1.9371 17.7983 2.59765L8.03708 19.5022ZM30.566 18.7439L27.2 12.914C28.1218 12.3755 29.1631 12.0937 30.2485 12.0937C33.5909 12.0937 36.3097 14.8126 36.3097 18.1562C36.3097 21.4985 33.5909 24.218 30.2485 24.218C28.6285 24.218 27.1196 23.5875 26.0004 22.4842H28.4069C30.3252 22.4842 31.526 20.4081 30.566 18.7439ZM27.7001 8.26464C27.9518 8.20072 28.153 8.01225 28.233 7.76566L28.9861 5.44988H31.5101L32.2627 7.76566C32.3425 8.01225 32.5438 8.20072 32.7955 8.26464C33.7224 8.50352 34.6117 8.87217 35.4384 9.36151C35.6619 9.49377 35.9379 9.50274 36.1692 9.38455L38.3393 8.27872L40.1254 10.0636L39.0189 12.235C38.9014 12.4662 38.9097 12.7416 39.042 12.9645C39.5313 13.7912 39.8999 14.6811 40.1388 15.6087C40.2021 15.8597 40.3911 16.0603 40.6377 16.1401L42.9547 16.8933V19.4186L40.6377 20.1705C40.3911 20.2503 40.2033 20.4509 40.1388 20.7032C39.8999 21.6296 39.5313 22.5194 39.042 23.3461C38.9097 23.5703 38.9014 23.845 39.0189 24.0769L40.1254 26.2477L38.3393 28.0326L36.1692 26.9274C35.9379 26.8087 35.6619 26.817 35.4384 26.9491C34.6117 27.4385 33.7225 27.8077 32.7955 28.046C32.5438 28.1105 32.3426 28.2983 32.2627 28.5455L31.5101 30.8619H28.9861L28.233 28.5461C28.153 28.2995 27.9518 28.1105 27.7001 28.0459C26.7738 27.8082 25.8839 27.4396 25.0574 26.949C24.8338 26.818 24.5578 26.8085 24.3265 26.9273L22.1564 28.0325L20.3703 26.2476L21.4774 24.0768C21.5943 23.845 21.5866 23.5696 21.4538 23.346C21.2883 23.0668 21.1362 22.7786 20.9996 22.4841H24.0276C25.4465 24.5264 27.7411 25.7345 30.2485 25.7345C34.4271 25.7345 37.8263 22.334 37.8263 18.1562C37.8263 13.9763 34.4271 10.5771 30.2485 10.5771C28.8943 10.5771 27.593 10.9304 26.4418 11.6012L25.1258 9.32188C25.9339 8.85298 26.8 8.49591 27.7001 8.26464ZM8.88349 22.4842H19.3475C19.5206 22.9174 19.7174 23.3415 19.9409 23.7516L18.7693 26.0495C18.6212 26.3427 18.6774 26.6979 18.9086 26.9297L21.473 29.494C21.7055 29.7265 22.0613 29.7822 22.3532 29.6339L24.6523 28.4623C25.3736 28.8552 26.1324 29.1701 26.917 29.4021L27.7135 31.8545C27.8151 32.1669 28.1064 32.3777 28.4347 32.3777H32.0607C32.389 32.3777 32.6804 32.1669 32.782 31.8545L33.5785 29.4021C34.3643 29.1702 35.1232 28.8546 35.8438 28.4623L38.1423 29.6339C38.4342 29.7821 38.79 29.7265 39.0227 29.494L41.587 26.9297C41.8182 26.6979 41.8751 26.3426 41.7263 26.0495L40.5553 23.7516C40.9468 23.0305 41.2625 22.2715 41.495 21.4864L43.9462 20.6898C44.2586 20.5876 44.4708 20.2963 44.4708 19.9692V16.3426C44.4708 16.0142 44.2587 15.7229 43.9462 15.6219L41.4937 14.8247C41.2618 14.0389 40.9468 13.2801 40.5553 12.5595L41.7263 10.2609C41.8751 9.96903 41.8182 9.61321 41.587 9.38058L39.0227 6.81764C38.7901 6.58512 38.4343 6.52823 38.1423 6.67776L35.8438 7.84808C35.1219 7.45582 34.3643 7.14087 33.5785 6.90903L32.7821 4.45724C32.6805 4.1449 32.3891 3.93407 32.0608 3.93407H28.4348C28.1065 3.93407 27.8151 4.1449 27.7136 4.45724L26.9171 6.90903C26.132 7.14087 25.373 7.45582 24.6524 7.84808L24.1197 7.57719L20.804 1.83741C19.8427 0.174691 17.4445 0.177189 16.4856 1.83741L6.72428 18.7439C5.76411 20.4063 6.96338 22.4842 8.88349 22.4842ZM43.3834 33.7436C45.1006 31.9869 45.3178 31.2593 45.344 31.0912C45.0572 30.7636 44.7326 30.7073 43.9756 30.7143C43.7176 30.7162 42.7995 30.9174 39.8354 32.7368C37.8927 33.9295 35.7105 35.4225 34.1167 36.5129C33.2888 37.0789 32.5745 37.5682 32.1107 37.8659C31.3359 38.3635 30.5111 38.5999 29.5924 38.5858L29.1203 38.5788C28.5627 39.6735 27.3224 40.35 26.1421 39.9203L21.6882 38.3008L19.6919 38.5941C19.278 38.6554 18.8928 38.3686 18.832 37.954C18.7707 37.5406 19.0575 37.1548 19.4721 37.0941L21.6569 36.7728C21.7814 36.7543 21.9086 36.7677 22.0261 36.8098L26.6595 38.4957C27.1733 38.6824 27.7344 38.1652 27.8682 37.6301L27.9085 37.4703C28.0432 36.9324 27.7845 36.3951 27.2793 36.1658L20.5857 33.1237C19.9482 32.8337 19.2838 32.8561 18.6667 33.1882L10.7088 37.4728L14.3597 45.2077C18.1167 43.4688 19.455 43.6599 21.4054 44.1389C22.6844 44.4533 24.2744 44.8442 27.7247 44.3529C29.5198 44.0974 33.8165 41.5868 38.1759 38.2477C40.2398 36.6668 42.0891 35.0666 43.3834 33.7436ZM13.5246 47.5058C13.4562 47.6968 13.3176 47.8482 13.1369 47.9319L10.8237 49.0077C10.4519 49.1801 10.0066 49.0159 9.82844 48.6404L5.00342 38.4153C4.82949 38.0463 4.99741 37.5975 5.36821 37.4257L7.68013 36.35C8.05253 36.1775 8.49849 36.3417 8.67606 36.7172L13.5018 46.943C13.5846 47.1187 13.5922 47.3187 13.5246 47.5058ZM46.5788 30.2045C45.8301 29.2629 44.9152 29.192 43.9628 29.1984C42.2438 29.2125 37.9201 32.0738 33.2605 35.2615C32.4428 35.8204 31.7363 36.3047 31.2903 36.5909C30.664 36.9932 30.1736 37.0767 29.455 37.0681C29.4084 36.0984 28.8283 35.2053 27.9065 34.7856L21.2135 31.7435C20.1429 31.2573 18.9828 31.2963 17.9479 31.8534L10.061 36.1003L10.0469 36.0703C9.51531 34.9435 8.16686 34.4522 7.04115 34.9754L4.72856 36.0499C3.59831 36.5762 3.09955 37.9335 3.63226 39.062L8.45796 49.2876C8.99532 50.4266 10.352 50.8997 11.4637 50.3826L13.7756 49.3081C14.8016 48.831 15.3189 47.6677 14.9843 46.5898C18.4583 44.9768 19.4549 45.2208 21.0436 45.6118C22.4483 45.9574 24.1968 46.3867 27.939 45.8546C30.2957 45.5179 34.8684 42.6138 38.3609 40.0079C41.8577 37.3996 45.8823 33.8861 46.6931 31.8515C47.0228 31.0247 46.8139 30.5003 46.5788 30.2045Z" fill="#030917"/>
  </g>
  <defs>
    <clipPath id="clip0_565_1729">
      <rect width="50" height="50" fill="white" transform="translate(0.141113 0.591309)"/>
    </clipPath>
  </defs>
</svg>