<svg xmlns="http://www.w3.org/2000/svg" width="51" height="51" viewBox="0 0 51 51" fill="none">
  <g clip-path="url(#clip0_565_1742)">
    <path d="M49.5303 29.6882L46.9856 27.1436C45.9463 26.1043 44.2561 26.106 43.2168 27.1436L29.4754 40.8858L27.5817 47.8314L27.1183 48.2948C26.7718 48.6413 26.7709 49.2002 27.1129 49.5493L27.1084 49.5672L27.1254 49.5627C27.2986 49.7323 27.5236 49.8198 27.7495 49.8198C27.9781 49.8198 28.2067 49.7323 28.3808 49.5582L28.8451 49.0939L35.7898 47.2002L49.5312 33.458C50.5705 32.4186 50.5705 30.7275 49.5303 29.6882ZM31.5371 41.3501L40.6828 32.2053L44.4712 35.9928L35.3255 45.1385L31.5371 41.3501ZM30.7308 43.0688L33.6059 45.9439L29.6522 47.0225L30.7308 43.0688ZM48.2677 32.1954L45.7329 34.7303L41.9444 30.9427L44.4793 28.4079C44.823 28.0641 45.3811 28.065 45.7239 28.407L48.2686 30.9517C48.6115 31.2936 48.6115 31.8526 48.2677 32.1954Z" fill="#030917"/>
    <path d="M24.4183 12.0781C23.9254 12.0781 23.5254 12.4772 23.5254 12.971C23.5254 13.4648 23.9254 13.8639 24.4183 13.8639H40.49C40.9828 13.8639 41.3829 13.4648 41.3829 12.971C41.3829 12.4772 40.9828 12.0781 40.49 12.0781H24.4183Z" fill="#030917"/>
    <path d="M41.3829 25.4712C41.3829 24.9775 40.9828 24.5784 40.49 24.5784H24.4183C23.9254 24.5784 23.5254 24.9775 23.5254 25.4712C23.5254 25.965 23.9254 26.3641 24.4183 26.3641H40.49C40.9828 26.3641 41.3829 25.9641 41.3829 25.4712Z" fill="#030917"/>
    <path d="M18.686 7.82889C18.3127 7.50746 17.7484 7.54942 17.427 7.92532L11.8483 14.4326L8.43577 11.8736C8.04112 11.579 7.48218 11.6575 7.18575 12.0522C6.88932 12.4459 6.96967 13.0058 7.36432 13.3013L11.4456 16.363C11.6064 16.4835 11.7939 16.5415 11.9814 16.5415C12.2341 16.5415 12.4841 16.4353 12.66 16.229L18.7824 9.08606C19.1029 8.71284 19.0601 8.14944 18.686 7.82889Z" fill="#030917"/>
    <path d="M18.686 20.3291C18.3127 20.0077 17.7484 20.0497 17.427 20.4256L11.8483 26.9328L8.43577 24.3739C8.04112 24.0783 7.48218 24.1587 7.18575 24.5524C6.88932 24.9462 6.96967 25.506 7.36432 25.8016L11.4456 28.8632C11.6064 28.9838 11.7939 29.0418 11.9814 29.0418C12.2341 29.0418 12.4841 28.9355 12.66 28.7293L18.7824 21.5863C19.1029 21.2131 19.0601 20.6497 18.686 20.3291Z" fill="#030917"/>
    <path d="M17.4261 33.8187L11.8474 40.3251L8.43577 37.7661C8.04112 37.4706 7.48218 37.5509 7.18575 37.9447C6.88932 38.3385 6.96967 38.8983 7.36432 39.1938L11.4456 42.2555C11.6064 42.376 11.7939 42.4341 11.9814 42.4341C12.2341 42.4341 12.4841 42.3278 12.66 42.1216L18.7824 34.9795C19.1029 34.6053 19.0601 34.0419 18.686 33.7214C18.3118 33.4009 17.7475 33.4437 17.4261 33.8187Z" fill="#030917"/>
    <path d="M22.6324 47.7931H11.1822C6.17226 47.7931 2.09629 43.7171 2.09629 38.7072V12.2344C2.09629 7.2245 6.17226 3.14943 11.1822 3.14943H37.6541C42.664 3.14943 46.7399 7.2245 46.7399 12.2344V22.7917C46.7399 23.2855 47.14 23.6846 47.6328 23.6846C48.1257 23.6846 48.5257 23.2855 48.5257 22.7917V12.2344C48.5257 6.23967 43.6488 1.36279 37.6541 1.36279H11.1822C5.18742 1.36369 0.310547 6.23967 0.310547 12.2344V38.7063C0.310547 44.7011 5.18742 49.5779 11.1822 49.5779H22.6324C23.1252 49.5779 23.5252 49.1788 23.5252 48.6851C23.5252 48.1913 23.1252 47.7931 22.6324 47.7931Z" fill="#030917"/>
  </g>
  <defs>
    <clipPath id="clip0_565_1742">
      <rect width="50" height="50" fill="white" transform="translate(0.310547 0.591309)"/>
    </clipPath>
  </defs>
</svg>